<svg width="16" height="22" viewBox="0 0 16 22" fill="none" xmlns="http://www.w3.org/2000/svg">
<path d="M12.8125 8.25H5.25V4.8125C5.25 4.08315 5.53973 3.38368 6.05546 2.86796C6.57118 2.35223 7.27065 2.0625 8 2.0625C8.72935 2.0625 9.42882 2.35223 9.94454 2.86796C10.4603 3.38368 10.75 4.08315 10.75 4.8125C10.75 4.99484 10.8224 5.1697 10.9514 5.29864C11.0803 5.42757 11.2552 5.5 11.4375 5.5C11.6198 5.5 11.7947 5.42757 11.9236 5.29864C12.0526 5.1697 12.125 4.99484 12.125 4.8125C12.125 3.71848 11.6904 2.66927 10.9168 1.89568C10.1432 1.1221 9.09402 0.6875 8 0.6875C6.90598 0.6875 5.85677 1.1221 5.08318 1.89568C4.3096 2.66927 3.875 3.71848 3.875 4.8125V8.25H3.1875C2.4584 8.2508 1.75939 8.54078 1.24384 9.05634C0.728283 9.57189 0.438296 10.2709 0.4375 11V18.5625C0.438296 19.2916 0.728283 19.9906 1.24384 20.5062C1.75939 21.0217 2.4584 21.3117 3.1875 21.3125H12.8125C13.5416 21.3117 14.2406 21.0217 14.7562 20.5062C15.2717 19.9906 15.5617 19.2916 15.5625 18.5625V11C15.5617 10.2709 15.2717 9.57189 14.7562 9.05634C14.2406 8.54078 13.5416 8.2508 12.8125 8.25Z" fill="black"/>
</svg>
