<svg width="25" height="19" viewBox="0 0 25 19" fill="none" xmlns="http://www.w3.org/2000/svg">
<path d="M16.4063 9.5C15.4024 9.5 14.4316 9.05176 13.6719 8.23828C12.9331 7.44482 12.4819 6.38672 12.4023 5.25977C12.3174 4.05762 12.6841 2.95215 13.4346 2.14648C14.1851 1.34082 15.2344 0.90625 16.4063 0.90625C17.5698 0.90625 18.6221 1.34863 19.3701 2.15234C20.1255 2.96387 20.4932 4.06738 20.4082 5.25928C20.3267 6.3877 19.876 7.44531 19.1387 8.23779C18.3809 9.05176 17.4107 9.5 16.4063 9.5ZM22.8433 18.0938H9.96973C9.76276 18.0949 9.55828 18.0485 9.37205 17.9581C9.18582 17.8678 9.02279 17.736 8.89551 17.5728C8.7605 17.3958 8.66727 17.1906 8.62279 16.9725C8.57832 16.7545 8.58375 16.5292 8.63868 16.3135C9.04981 14.6626 10.0684 13.2935 11.584 12.3545C12.9292 11.5215 14.6416 11.0625 16.4063 11.0625C18.2056 11.0625 19.8731 11.502 21.2261 12.3345C22.7451 13.2686 23.7651 14.6455 24.1743 16.3164C24.2286 16.5322 24.2334 16.7576 24.1884 16.9755C24.1435 17.1935 24.0498 17.3985 23.9146 17.5752C23.7874 17.7377 23.6248 17.8689 23.4391 17.9587C23.2534 18.0486 23.0496 18.0948 22.8433 18.0938ZM7.17774 9.69531C5.45948 9.69531 3.94874 8.09766 3.8086 6.13428C3.73926 5.12842 4.05274 4.19824 4.68751 3.51611C5.31544 2.84082 6.20118 2.46875 7.17774 2.46875C8.1543 2.46875 9.03321 2.84277 9.66456 3.52197C10.3042 4.20947 10.6167 5.1377 10.5435 6.13525C10.4033 8.09815 8.89307 9.69531 7.17774 9.69531ZM10.3838 11.231C9.52491 10.811 8.41016 10.6011 7.17823 10.6011C5.73975 10.6011 4.34278 10.9761 3.24415 11.6567C1.99854 12.4297 1.16065 13.5552 0.822271 14.9141C0.772752 15.1095 0.768069 15.3136 0.808571 15.5112C0.849073 15.7087 0.933712 15.8945 1.05616 16.0547C1.17234 16.2038 1.32119 16.3244 1.49125 16.407C1.66131 16.4896 1.84805 16.5321 2.03712 16.5313H7.45704C7.54852 16.5312 7.63709 16.4991 7.70731 16.4405C7.77754 16.3819 7.82496 16.3005 7.84131 16.2105C7.84669 16.1797 7.85352 16.1489 7.86133 16.1187C8.2754 14.4556 9.24561 13.0503 10.6792 12.0259C10.7319 11.9879 10.7743 11.9373 10.8026 11.8788C10.8308 11.8202 10.844 11.7556 10.841 11.6906C10.8379 11.6257 10.8187 11.5626 10.7851 11.5069C10.7515 11.4513 10.7045 11.405 10.6484 11.3721C10.5718 11.3271 10.4839 11.2798 10.3838 11.231Z" fill="black"/>
</svg>
