<svg width="21" height="21" viewBox="0 0 21 21" fill="none" xmlns="http://www.w3.org/2000/svg">
<path d="M10.5 0.34375C4.8999 0.34375 0.34375 4.8999 0.34375 10.5C0.34375 16.1001 4.8999 20.6562 10.5 20.6562C16.1001 20.6562 20.6562 16.1001 20.6562 10.5C20.6562 4.8999 16.1001 0.34375 10.5 0.34375ZM8.04785 6.04785C8.6665 5.39209 9.53711 5.03125 10.5 5.03125C11.4629 5.03125 12.3257 5.39453 12.9468 6.05371C13.5762 6.72168 13.8823 7.61914 13.8101 8.58398C13.6655 10.5 12.1812 12.0625 10.5 12.0625C8.81885 12.0625 7.33154 10.5 7.18994 8.5835C7.11816 7.61084 7.42383 6.71045 8.04785 6.04785ZM10.5 19.0938C9.35277 19.0945 8.21706 18.8649 7.16023 18.4185C6.1034 17.9721 5.14697 17.3181 4.34766 16.4951C4.80545 15.8423 5.38875 15.2872 6.06348 14.8623C7.30811 14.0645 8.8833 13.625 10.5 13.625C12.1167 13.625 13.6919 14.0645 14.9351 14.8623C15.6103 15.287 16.1942 15.8421 16.6523 16.4951C15.8531 17.3181 14.8967 17.9723 13.8398 18.4187C12.783 18.865 11.6473 19.0946 10.5 19.0938Z" fill="black"/>
</svg>
